<?xml version="1.0" encoding="iso-8859-1"?>
<!-- Uploaded to: SVG Repo, www.svgrepo.com, Generator: SVG Repo Mixer Tools -->
<svg height="800px" width="800px" version="1.1" id="Layer_1" xmlns="http://www.w3.org/2000/svg" xmlns:xlink="http://www.w3.org/1999/xlink" 
	 viewBox="0 0 512 512" xml:space="preserve">
<g>
	<path style="fill:#878791;" d="M181.696,65.849c0,0-40.248-65.849-49.536-65.849s-8.256,98.873-8.256,98.873L181.696,65.849z"/>
	<path style="fill:#878791;" d="M330.27,65.849c0,0,40.248-65.849,49.536-65.849c9.288,0,8.256,98.873,8.256,98.873L330.27,65.849z"
		/>
</g>
<path style="fill:#C39B6E;" d="M256,512c81.872,0,185.928-18.287,209.564-107.328c23.285-87.72-29.233-150.366-44.444-181.632
	c-12.384-25.456-16.512-40.592-16.512-74.304C404.608,33.152,256,33.023,256,33.023s-148.608,0.129-148.608,115.713
	c0,33.712-4.128,48.848-16.512,74.304c-15.211,31.265-67.729,93.912-44.444,181.632C70.072,493.714,174.128,512,256,512z"/>
<path style="fill:#AC8A67;" d="M256,82.361L256,82.361c-31.918,0-57.792,25.874-57.792,57.792v206.4
	c0,31.918,25.874,57.792,57.792,57.792l0,0c31.918,0,57.792-25.874,57.792-57.792v-206.4C313.792,108.235,287.918,82.361,256,82.361
	z"/>
<g>
	<path style="fill:#464655;" d="M313.792,429.03c0,42.147-39.553,28.617-57.792,28.617s-57.792,13.53-57.792-28.617
		s25.874-28.617,57.792-28.617S313.792,386.882,313.792,429.03z"/>
	<ellipse style="fill:#464655;" cx="115.646" cy="164.924" rx="16.512" ry="24.768"/>
	<ellipse style="fill:#464655;" cx="396.35" cy="164.924" rx="16.512" ry="24.768"/>
</g>
<path style="fill:#C0C0C6;" d="M283.628,200.296l-0.012-0.011c-7.849-7.065-17.732-10.597-27.615-10.597
	c-9.883,0-19.765,3.531-27.615,10.597l-0.012,0.011c-34.966,31.47-54.932,76.303-54.932,123.346v91.214
	c0,13.679,11.089,24.768,24.768,24.768h22.819c12.14,0,24.115-2.827,34.973-8.256c10.859,5.429,22.832,8.256,34.973,8.256h22.819
	c13.679,0,24.768-11.089,24.768-24.768v-91.214C338.56,276.599,318.594,231.767,283.628,200.296z"/>
<g>
	<path style="fill:#9E9EA6;" d="M308.029,241.48h-9.262c-6.409,0-12.73,1.492-18.461,4.358l-13.228,6.614
		c-6.973,3.487-15.181,3.487-22.154,0l-13.228-6.614c-5.732-2.866-12.053-4.358-18.461-4.358h-9.262
		c-15.647,0-29.672,11.716-30.49,27.342c-0.873,16.665,12.381,30.45,28.855,30.45h4.128c24.768,0,24.768,33.024,49.536,33.024
		s24.768-33.024,49.536-33.024h4.128c16.474,0,29.728-13.785,28.855-30.45C337.701,253.196,323.675,241.48,308.029,241.48z"/>
	<path style="fill:#9E9EA6;" d="M256,431.368c2.687,1.344,5.446,2.523,8.256,3.545V406.6c0-4.559-3.697-8.256-8.256-8.256
		c-4.559,0-8.256,3.697-8.256,8.256v28.313C250.554,433.891,253.313,432.711,256,431.368z"/>
</g>
<g>
	<circle style="fill:#464655;" cx="202.334" cy="270.374" r="12.384"/>
	<circle style="fill:#464655;" cx="309.662" cy="270.374" r="12.384"/>
</g>
</svg>